<svg xmlns="http://www.w3.org/2000/svg" width="122" height="20" viewBox="0 0 122 20" fill="none"><path d="M42.765 11.2401L40.6789 10.2674C39.3229 9.727 38.1756 9.18661 38.3842 8.64622C38.3842 8.21391 39.1143 7.99775 41.2004 7.99775C43.2865 7.99775 45.3726 8.32199 47.4587 8.7543L47.7716 5.72812C45.6046 5.3068 43.4052 5.08975 41.2004 5.07965C39.9452 5.05153 38.6899 5.1238 37.4454 5.29581C35.5679 5.51196 32.3345 6.37659 32.2302 9.07853C32.0216 11.8885 35.255 13.0774 37.2368 13.8339L38.8014 14.5905C40.6789 15.347 41.5133 15.6713 41.5133 16.2117C41.5133 16.752 40.1574 16.8601 38.3842 16.8601C36.2844 16.7491 34.1939 16.4963 32.1259 16.1036L31.9173 19.3459C34.2714 19.6322 36.6397 19.7765 39.01 19.7782H39.8444C43.1822 19.7782 47.3544 19.2378 47.8759 16.3197C48.2931 13.6178 45.4769 12.4289 42.8693 11.2401M66.7551 13.7259C67.7981 6.8089 61.9571 5.40389 60.4968 5.18773C59.9757 5.15653 59.4533 5.15653 58.9322 5.18773C52.6739 5.07965 49.5448 9.07853 49.3362 12.4289C49.1276 15.4551 50.2749 19.9944 59.3494 19.9944C61.4355 19.9944 63.7302 19.7782 65.8163 19.2378L66.2336 16.2117C64.1778 16.6843 62.0808 16.9378 59.9753 16.9682H59.7667C55.5945 16.8601 54.8643 14.8066 54.76 13.7259H66.7551ZM55.0729 11.0239C55.3859 9.07853 56.9504 7.7816 58.8279 7.88967C62.27 7.88967 62.0614 11.0239 62.0614 11.0239H55.0729ZM121.828 13.7259C123.08 6.8089 117.134 5.40389 115.778 5.18773C115.223 5.1525 114.665 5.1525 114.109 5.18773C107.851 5.07965 104.722 9.07853 104.513 12.4289C104.305 15.4551 105.348 19.9944 114.527 19.9944C116.671 20.0419 118.811 19.7874 120.889 19.2378L121.411 16.2117C119.355 16.6843 117.258 16.9378 115.153 16.9682H114.944C110.772 16.8601 109.937 14.8066 109.937 13.7259H121.828ZM110.25 11.0239C110.459 9.07853 112.128 7.7816 114.005 7.88967C117.447 7.88967 117.134 11.0239 117.134 11.0239H110.25ZM80.0018 10.2674L79.4803 19.6701H84.9041L85.5299 10.1593C85.7386 5.8362 82.818 5.51196 80.8362 5.29581L78.2286 5.18773H77.1856L69.467 5.8362L68.6326 19.6701H74.0564L74.7866 8.43006C75.9269 8.267 77.0776 8.19474 78.2286 8.21391C78.7501 8.21391 80.3147 8.21391 80.1061 10.3755M29.3097 0H24.8245L24.5116 3.78272H30.3527L30.5613 1.29693C30.5613 0.432311 30.2484 0 29.3097 0ZM98.1508 11.2401L96.0647 10.2674C94.5002 9.727 93.3528 9.18661 93.5614 8.64622C93.6657 8.21391 94.3959 7.99775 96.3776 7.99775C98.4637 7.99775 100.55 8.32199 102.636 8.7543L102.949 5.72812C100.816 5.31324 98.6519 5.09623 96.4819 5.07965C95.192 5.04634 93.9016 5.11862 92.6227 5.29581C90.7452 5.51196 87.616 6.37659 87.4074 9.07853C87.3031 11.8885 90.5366 13.0774 92.4141 13.8339L94.0829 14.5905C95.8561 15.347 96.7949 15.6713 96.6906 16.2117C96.6906 16.752 95.4389 16.8601 93.6657 16.8601C91.566 16.7491 89.4755 16.4963 87.4074 16.1036L87.1988 19.3459C89.4935 19.5621 91.8925 19.7782 94.1872 19.7782H95.0217C98.4637 19.7782 102.636 19.2378 103.053 16.3197C103.47 13.6178 100.758 12.4289 98.0465 11.2401M16.0629 0L15.5414 6.91697H6.98842L7.30134 1.29693C7.30134 0 6.25829 0 5.94537 0H1.46027L0 19.7782H5.94537L6.67551 11.0239H15.2285L14.6027 19.6701H20.548L21.904 0H16.0629ZM24.4073 5.40389L23.3643 19.7782H29.2053L30.2484 5.40389" fill="#00B3AC"></path></svg>